<svg xmlns="http://www.w3.org/2000/svg" width="160" height="50.909" viewBox="0 0 160 50.909">
  <g id="Brand" transform="translate(-1196 -241)">
    <rect id="Rectangle_503" data-name="Rectangle 503" width="50.909" height="160" rx="6" transform="translate(1356 241) rotate(90)" fill="#fff"/>
    <g id="Group_624" data-name="Group 624" transform="translate(1225.159 251.473)">
      <g id="Group_539" data-name="Group 539" transform="translate(35.942 4.93)">
        <path id="Path_213" data-name="Path 213" d="M217.434-102.009a1.935,1.935,0,0,1,.577-1.378,1.842,1.842,0,0,1,1.378-.6,1.963,1.963,0,0,1,1.4.576,1.869,1.869,0,0,1,.6,1.4,1.9,1.9,0,0,1-.589,1.39,1.926,1.926,0,0,1-1.415.589,1.846,1.846,0,0,1-1.39-.589A1.941,1.941,0,0,1,217.434-102.009Z" transform="translate(-177.548 103.988)" fill="#ff7f62"/>
        <g id="Group_538" data-name="Group 538" transform="translate(0 1.528)">
          <path id="Path_214" data-name="Path 214" d="M148.188-84.273v-17.062h6.464a6.489,6.489,0,0,1,3.432.777,3.268,3.268,0,0,1,1.553,3.007,3.549,3.549,0,0,1-1.252,2.781,5.335,5.335,0,0,1-2.857,1.227v.225a6.15,6.15,0,0,1,2.932.952,3.642,3.642,0,0,1,1.579,3.182,4.313,4.313,0,0,1-1.9,3.758,7.1,7.1,0,0,1-4.158,1.153Zm3.758-15.584v5.888h.778a4.884,4.884,0,0,0,1.189-.124,2.2,2.2,0,0,0,.915-.5,2.873,2.873,0,0,0,.814-1.148,3.95,3.95,0,0,0,.263-1.448,2.82,2.82,0,0,0-.7-2.045,2.632,2.632,0,0,0-1.98-.723A8.752,8.752,0,0,0,151.946-99.857Zm0,7.341v6.789H153.2a2.861,2.861,0,0,0,2.042-.889,3.183,3.183,0,0,0,.915-2.392,3.255,3.255,0,0,0-1.1-2.782A5.257,5.257,0,0,0,151.946-92.516Z" transform="translate(-148.188 101.335)" fill="#0e153d"/>
          <path id="Path_215" data-name="Path 215" d="M183.724-86.669h-7.165a6.142,6.142,0,0,0,.727,3.307,3.009,3.009,0,0,0,2.756,1.353,4.086,4.086,0,0,0,1.529-.3,5.464,5.464,0,0,0,1.4-.827l.3.225-.551,1.4a6.084,6.084,0,0,1-3.583,1.128,6.076,6.076,0,0,1-4.685-1.729,6.879,6.879,0,0,1-1.6-4.86,6.153,6.153,0,0,1,1.541-4.347,5.437,5.437,0,0,1,4.2-1.666,4.561,4.561,0,0,1,4.033,1.8A7.816,7.816,0,0,1,183.724-86.669Zm-7.165-1.2h3.709a9.845,9.845,0,0,0-.251-2.48q-.4-1.5-1.4-1.5-1.2,0-1.7,1.478A7.814,7.814,0,0,0,176.558-87.872Z" transform="translate(-158.645 97.794)" fill="#0e153d"/>
          <path id="Path_216" data-name="Path 216" d="M201.354-80.446l-2.405-4.359q-.326.507-1.377,2.129-.928,1.444-1.4,2.23l-1-.125-1,.125,3.984-5.562q-1.028-1.837-2.355-4.052L194.263-92.6q.426,0,1.153.066t.877.065q.45,0,1.177-.065c.484-.044.778-.066.877-.066q.525.979,1.09,2.02t1.064,1.92q.626-.9,1.329-1.932.575-.852,1.278-2.007l1.127.082,1.128-.082q-1.1,1.329-2.129,2.632-.9,1.153-1.954,2.533l1.378,2.356q1.377,2.331,2.78,4.637-.426,0-1.151-.062c-.486-.042-.786-.063-.9-.063q-.426,0-1.153.063T201.354-80.446Z" transform="translate(-167.681 97.633)" fill="#0e153d"/>
          <path id="Path_217" data-name="Path 217" d="M217.87-80.441V-92.592q.426.05.965.088c.359.025.613.037.764.037a9.119,9.119,0,0,0,1-.05q.452-.051.728-.075v12.151a5.961,5.961,0,0,0-.627-.05q-.876-.075-1.1-.075a9.135,9.135,0,0,0-1,.05C218.3-80.483,218.053-80.457,217.87-80.441Z" transform="translate(-177.733 97.628)" fill="#0e153d"/>
          <path id="Path_218" data-name="Path 218" d="M229.221-80.607V-92.758c.285.033.605.063.965.088s.614.037.764.037a9.147,9.147,0,0,0,1-.05q.451-.051.727-.075v1.879a4.271,4.271,0,0,1,1.566-1.515,4.16,4.16,0,0,1,2.117-.589,3.6,3.6,0,0,1,2.055.589,3.346,3.346,0,0,1,1.278,1.691,5.533,5.533,0,0,1,1.6-1.628,4.042,4.042,0,0,1,2.205-.651,3.669,3.669,0,0,1,3.03,1.177,4.992,4.992,0,0,1,.877,3.207v7.992a5.947,5.947,0,0,0-.626-.05q-.878-.075-1.1-.075a9.148,9.148,0,0,0-1,.05q-.45.05-.726.075V-87.4a5.6,5.6,0,0,0-.463-2.781,1.534,1.534,0,0,0-1.366-.7,1.857,1.857,0,0,0-1.7.752,3.776,3.776,0,0,0-.376,1.93v7.591a5.948,5.948,0,0,0-.626-.05q-.878-.075-1.1-.075a9.147,9.147,0,0,0-1,.05q-.45.05-.726.075V-87.4a5.6,5.6,0,0,0-.463-2.781,1.534,1.534,0,0,0-1.366-.7,1.748,1.748,0,0,0-1.679.952,4.279,4.279,0,0,0-.4,2v7.315a5.969,5.969,0,0,0-.627-.05q-.878-.075-1.1-.075a9.135,9.135,0,0,0-1,.05Q229.5-80.632,229.221-80.607Z" transform="translate(-182.546 97.794)" fill="#0e153d"/>
        </g>
      </g>
      <g id="Group_540" data-name="Group 540" transform="translate(0 0)">
        <path id="Path_219" data-name="Path 219" d="M102.584-112.332a14.468,14.468,0,0,0-2.4-.215,14.4,14.4,0,0,0-14.4,14.4,14.357,14.357,0,0,0,1.133,5.608q.527-.374,1.074-.721A24.324,24.324,0,0,1,102.584-112.332Z" transform="translate(-85.788 112.547)" fill="#ff7f62"/>
        <path id="Path_220" data-name="Path 220" d="M112.428-105.233a24.53,24.53,0,0,1,2.712.154,14.421,14.421,0,0,0-7.934-6.281,23.243,23.243,0,0,0-15.2,17.26A24.275,24.275,0,0,1,112.428-105.233Z" transform="translate(-88.426 112.044)" fill="#ff7f62"/>
        <path id="Path_221" data-name="Path 221" d="M94.685-88.986a24.194,24.194,0,0,1,10.05-2.177,24.181,24.181,0,0,1,12.8,3.644,14.335,14.335,0,0,0,.829-4.778,14.316,14.316,0,0,0-1.42-6.2,23.259,23.259,0,0,0-3.378-.249A23.146,23.146,0,0,0,94.685-88.986Z" transform="translate(-89.56 106.697)" fill="#ff7f62"/>
        <path id="Path_222" data-name="Path 222" d="M91.193-77.68c0,.253.011.5.02.756a14.361,14.361,0,0,0,11.267,5.448,14.393,14.393,0,0,0,13.144-8.536,23.019,23.019,0,0,0-12.369-3.593,23.016,23.016,0,0,0-11.264,2.933c-.259.449-.506.907-.735,1.374C91.219-78.763,91.193-78.224,91.193-77.68Z" transform="translate(-88.08 100.276)" fill="#0e153d"/>
      </g>
    </g>
  </g>
</svg>
