<svg xmlns="http://www.w3.org/2000/svg" width="530" height="113" viewBox="0 0 530 113">
  <g id="Countdown" transform="translate(-987 -4214)">
    <g id="Ellipse_22" data-name="Ellipse 22" transform="translate(989 4216)" fill="#fff" stroke="#20d3c2" stroke-width="2" stroke-dasharray="4 2">
      <circle cx="54.5" cy="54.5" r="54.5" stroke="none"/>
      <circle cx="54.5" cy="54.5" r="55.5" fill="none"/>
    </g>
    <g id="Ellipse_23" data-name="Ellipse 23" transform="translate(1128 4216)" fill="#fff" stroke="#20d3c2" stroke-width="2" stroke-dasharray="4 2">
      <circle cx="54.5" cy="54.5" r="54.5" stroke="none"/>
      <circle cx="54.5" cy="54.5" r="55.5" fill="none"/>
    </g>
    <g id="Ellipse_24" data-name="Ellipse 24" transform="translate(1267 4216)" fill="#fff" stroke="#20d3c2" stroke-width="2" stroke-dasharray="4 2">
      <circle cx="54.5" cy="54.5" r="54.5" stroke="none"/>
      <circle cx="54.5" cy="54.5" r="55.5" fill="none"/>
    </g>
    <g id="Ellipse_25" data-name="Ellipse 25" transform="translate(1406 4216)" fill="#fff" stroke="#20d3c2" stroke-width="2" stroke-dasharray="4 2">
      <circle cx="54.5" cy="54.5" r="54.5" stroke="none"/>
      <circle cx="54.5" cy="54.5" r="55.5" fill="none"/>
    </g>
    <text id="_7" data-name="7" transform="translate(1044 4274)" fill="#20d3c2" font-size="36" font-family="SegoeUI-Bold, Segoe UI" font-weight="700"><tspan x="-10.354" y="0">7</tspan></text>
    <text id="_23" data-name="23" transform="translate(1183 4274)" fill="#20d3c2" font-size="36" font-family="SegoeUI-Bold, Segoe UI" font-weight="700"><tspan x="-20.707" y="0">23</tspan></text>
    <text id="_46" data-name="46" transform="translate(1322 4274)" fill="#20d3c2" font-size="36" font-family="SegoeUI-Bold, Segoe UI" font-weight="700"><tspan x="-20.707" y="0">46</tspan></text>
    <text id="_12" data-name="12" transform="translate(1461 4274)" fill="#20d3c2" font-size="36" font-family="SegoeUI-Bold, Segoe UI" font-weight="700"><tspan x="-20.707" y="0">12</tspan></text>
    <text id="Days" transform="translate(1044 4297)" fill="#0e153d" font-size="16" font-family="Roboto-Regular, Roboto"><tspan x="-17.508" y="0">Days</tspan></text>
    <text id="Hours" transform="translate(1183 4297)" fill="#0e153d" font-size="16" font-family="Roboto-Regular, Roboto"><tspan x="-21.508" y="0">Hours</tspan></text>
    <text id="Minutes" transform="translate(1322 4297)" fill="#0e153d" font-size="16" font-family="Roboto-Regular, Roboto"><tspan x="-28.727" y="0">Minutes</tspan></text>
    <text id="Seconds" transform="translate(1461 4297)" fill="#0e153d" font-size="16" font-family="Roboto-Regular, Roboto"><tspan x="-30.785" y="0">Seconds</tspan></text>
  </g>
</svg>
