<svg xmlns="http://www.w3.org/2000/svg" xmlns:xlink="http://www.w3.org/1999/xlink" width="390" height="40" viewBox="0 0 390 40">
  <defs>
    <radialGradient id="radial-gradient" cx="0.5" cy="0.5" r="0.506" gradientTransform="translate(-0.004) scale(0.978 1)" gradientUnits="objectBoundingBox">
      <stop offset="0.006" stop-color="#ffeee0"/>
      <stop offset="0.11" stop-color="#fee8d7"/>
      <stop offset="0.279" stop-color="#fddbbe"/>
      <stop offset="0.494" stop-color="#fac496"/>
      <stop offset="0.744" stop-color="#f7a55f"/>
      <stop offset="1" stop-color="#f48120"/>
    </radialGradient>
  </defs>
  <g id="Payment_system" data-name="Payment system" transform="translate(-3115 -8179)">
    <g id="Group_475" data-name="Group 475" transform="translate(3012.531 7156.308)">
      <rect id="Rectangle_358" data-name="Rectangle 358" width="70" height="40" rx="4.32" transform="translate(262.469 1022.692)" fill="#fff"/>
      <g id="Group_421" data-name="Group 421">
        <g id="Group_420" data-name="Group 420">
          <path id="Path_146" data-name="Path 146" d="M295.014,1048.48H292l1.882-11.567H296.9Z" fill="#0066b2"/>
          <path id="Path_147" data-name="Path 147" d="M289.47,1036.913l-2.872,7.955-.339-1.713h0l-1.013-5.2a1.29,1.29,0,0,0-1.429-1.041h-4.746l-.055.2a11.247,11.247,0,0,1,3.149,1.323l2.617,10.049h3.137l4.792-11.567Z" fill="#0066b2"/>
          <path id="Path_148" data-name="Path 148" d="M313.156,1048.48h2.765l-2.41-11.567h-2.422a1.383,1.383,0,0,0-1.39.862l-4.491,10.7h3.139l.628-1.718H312.8Zm-3.313-4.092,1.582-4.329.89,4.329Z" fill="#0066b2"/>
          <path id="Path_149" data-name="Path 149" d="M305.444,1039.694l.429-2.484a8.7,8.7,0,0,0-2.708-.5c-1.495,0-5.044.653-5.044,3.829,0,2.989,4.166,3.026,4.166,4.595s-3.736,1.288-4.969.3l-.448,2.6a8.432,8.432,0,0,0,3.4.654c2.055,0,5.156-1.065,5.156-3.96,0-3.008-4.2-3.288-4.2-4.595S304.155,1038.984,305.444,1039.694Z" fill="#0066b2"/>
        </g>
        <path id="Path_150" data-name="Path 150" d="M286.259,1043.156l-1.013-5.2a1.29,1.29,0,0,0-1.429-1.041h-4.746l-.055.2a11.666,11.666,0,0,1,4.469,2.245A9.018,9.018,0,0,1,286.259,1043.156Z" fill="#f9a533"/>
      </g>
    </g>
    <g id="Group_476" data-name="Group 476" transform="translate(2772.531 7156.308)">
      <rect id="Rectangle_359" data-name="Rectangle 359" width="70" height="40" rx="4.32" transform="translate(342.469 1022.692)" fill="#fff"/>
      <g id="Group_423" data-name="Group 423">
        <path id="Path_151" data-name="Path 151" d="M367.222,1055.137v-1.659a.973.973,0,0,0-1.051-1.051,1.09,1.09,0,0,0-.94.47.967.967,0,0,0-.885-.47.893.893,0,0,0-.774.387v-.332h-.581v2.655h.581v-1.466c0-.47.249-.691.636-.691s.581.249.581.691v1.466h.581v-1.466a.611.611,0,0,1,.636-.691c.387,0,.58.249.58.691v1.466Zm8.6-2.655h-.94v-.8H374.3v.8h-.525v.526h.525v1.216c0,.609.249.968.913.968a1.555,1.555,0,0,0,.719-.193l-.166-.5a.907.907,0,0,1-.5.138c-.277,0-.387-.166-.387-.442v-1.189h.94v-.526Zm4.923-.055a.782.782,0,0,0-.692.387v-.332h-.581v2.655h.581v-1.493c0-.443.194-.692.553-.692a1.6,1.6,0,0,1,.36.056l.166-.554a1.874,1.874,0,0,0-.387-.027Zm-7.44.276a1.9,1.9,0,0,0-1.078-.276c-.664,0-1.106.332-1.106.857,0,.443.332.691.912.774l.277.028c.3.055.47.138.47.277,0,.193-.221.332-.608.332a1.525,1.525,0,0,1-.885-.277l-.277.442a1.95,1.95,0,0,0,1.134.332c.774,0,1.217-.359,1.217-.857,0-.47-.36-.719-.913-.8l-.276-.028c-.249-.027-.443-.083-.443-.249,0-.193.194-.3.5-.3a1.994,1.994,0,0,1,.83.222l.248-.471Zm15.432-.276a.782.782,0,0,0-.692.387v-.332h-.58v2.655h.58v-1.493c0-.443.194-.692.554-.692a1.6,1.6,0,0,1,.359.056l.166-.554a1.874,1.874,0,0,0-.387-.027Zm-7.412,1.383a1.328,1.328,0,0,0,1.411,1.382,1.377,1.377,0,0,0,.94-.3l-.277-.47a1.116,1.116,0,0,1-.691.249.785.785,0,0,1-.8-.857.817.817,0,0,1,.8-.858,1.116,1.116,0,0,1,.691.249l.277-.47a1.378,1.378,0,0,0-.94-.3,1.329,1.329,0,0,0-1.411,1.383Zm5.365,0v-1.328h-.58v.332a1,1,0,0,0-.83-.387,1.384,1.384,0,0,0,0,2.765.932.932,0,0,0,.83-.387v.332h.58Zm-2.129,0a.8.8,0,1,1,1.6,0,.8.8,0,1,1-1.6,0Zm-6.941-1.383a1.383,1.383,0,0,0,.027,2.765,1.691,1.691,0,0,0,1.079-.359l-.277-.415a1.321,1.321,0,0,1-.774.277.746.746,0,0,1-.8-.637h1.963v-.221a1.221,1.221,0,0,0-1.216-1.41Zm0,.5a.646.646,0,0,1,.663.636H376.9a.7.7,0,0,1,.719-.636Zm14.408.885v-2.379h-.581v1.383a1,1,0,0,0-.83-.387,1.384,1.384,0,0,0,0,2.765.93.93,0,0,0,.83-.387v.332h.581Zm-2.13,0a.8.8,0,1,1,1.6,0,.8.8,0,1,1-1.6,0Zm-19.413,0v-1.328H369.9v.332a1,1,0,0,0-.83-.387,1.384,1.384,0,0,0,0,2.765.932.932,0,0,0,.83-.387v.332h.581Zm-2.157,0a.8.8,0,1,1,1.6,0,.8.8,0,1,1-1.6,0Z"/>
        <rect id="Rectangle_360" data-name="Rectangle 360" width="8.711" height="15.653" transform="translate(373.113 1032.322)" fill="#ff5f00"/>
        <path id="Path_152" data-name="Path 152" d="M373.666,1040.148a9.98,9.98,0,0,1,3.789-7.826,9.956,9.956,0,1,0,0,15.652A9.938,9.938,0,0,1,373.666,1040.148Z" fill="#eb001b"/>
        <path id="Path_153" data-name="Path 153" d="M393.577,1040.148a9.945,9.945,0,0,1-16.1,7.826,9.977,9.977,0,0,0,0-15.652,9.945,9.945,0,0,1,16.1,7.826Z" fill="#f79e1b"/>
      </g>
    </g>
    <g id="Group_477" data-name="Group 477" transform="translate(2772.531 7156.308)">
      <rect id="Rectangle_361" data-name="Rectangle 361" width="70" height="40" rx="4.32" transform="translate(422.469 1022.692)" fill="#fff"/>
      <g id="Group_425" data-name="Group 425">
        <path id="Path_154" data-name="Path 154" d="M439.995,1036.44a2.49,2.49,0,0,1,2.753,2.9c-.229,2.457-1.553,3.825-3.635,3.83H437.3c-.262,0-.388.213-.457.651l-.35,2.236c-.053.338-.226.5-.482.5h-1.692c-.27,0-.364-.173-.3-.558l1.4-8.963c.068-.44.237-.6.536-.6Zm-2.755,4.8h1.378c.861-.032,1.434-.629,1.491-1.705a1.039,1.039,0,0,0-1.128-1.137l-1.3.005-.444,2.837Zm10.107,4.64c.154-.14.312-.213.289-.04l-.055.416c-.028.216.058.332.26.332h1.5c.252,0,.376-.1.438-.494l.926-5.813c.047-.292-.024-.435-.246-.435H448.81c-.149,0-.221.083-.26.311l-.061.358c-.032.187-.118.219-.2.031-.281-.664-1-.962-2-.941a4.135,4.135,0,0,0-4.048,4.063,2.793,2.793,0,0,0,2.769,3.115,2.985,2.985,0,0,0,2.333-.9Zm-1.258-.893a1.509,1.509,0,0,1-1.548-1.771,2.158,2.158,0,0,1,2.075-1.772,1.509,1.509,0,0,1,1.548,1.772,2.157,2.157,0,0,1-2.075,1.771Zm7.563-5.16h-1.519c-.315,0-.442.23-.342.523l1.892,5.541-1.865,2.636c-.155.22-.035.421.184.421h1.713a.525.525,0,0,0,.51-.25l5.819-8.348c.179-.257.1-.526-.2-.526l-1.62,0c-.278,0-.39.11-.549.341l-2.427,3.522-1.08-3.528A.468.468,0,0,0,453.652,1039.824Z" fill="#113984" fill-rule="evenodd"/>
        <path id="Path_155" data-name="Path 155" d="M466.1,1036.44a2.49,2.49,0,0,1,2.753,2.9c-.229,2.457-1.553,3.825-3.635,3.83H463.4c-.262,0-.388.213-.456.651l-.351,2.236c-.053.338-.226.5-.482.5H460.42c-.27,0-.364-.173-.3-.558l1.4-8.963c.068-.44.237-.6.536-.6Zm-2.755,4.8h1.378c.861-.032,1.434-.629,1.492-1.705a1.041,1.041,0,0,0-1.129-1.137l-1.3.005-.444,2.837Zm10.107,4.64c.154-.14.312-.213.289-.04l-.055.416c-.028.216.058.332.26.332h1.5c.252,0,.376-.1.438-.494l.926-5.813c.047-.292-.024-.435-.246-.435h-1.652c-.149,0-.221.083-.26.311l-.061.358c-.032.187-.118.219-.2.031-.281-.664-1-.962-2-.941a4.135,4.135,0,0,0-4.048,4.063,2.794,2.794,0,0,0,2.769,3.115,2.985,2.985,0,0,0,2.333-.9Zm-1.258-.893a1.509,1.509,0,0,1-1.548-1.771,2.158,2.158,0,0,1,2.075-1.772,1.51,1.51,0,0,1,1.549,1.772,2.159,2.159,0,0,1-2.076,1.771Zm6.933,1.611h-1.735a.2.2,0,0,1-.213-.24l1.526-9.655a.3.3,0,0,1,.288-.24h1.735a.2.2,0,0,1,.212.24l-1.525,9.655A.3.3,0,0,1,479.127,1046.595Z" fill="#009de2" fill-rule="evenodd"/>
      </g>
    </g>
    <g id="Group_478" data-name="Group 478" transform="translate(2932.531 7156.308)">
      <rect id="Rectangle_362" data-name="Rectangle 362" width="70" height="40" rx="4.32" transform="translate(502.469 1022.692)" fill="#fff"/>
      <path id="Path_156" data-name="Path 156" d="M572.469,1045.166s-17.157,12.1-48.58,17.526h44.58a4,4,0,0,0,4-4Z" fill="#f58220"/>
      <path id="Path_157" data-name="Path 157" d="M562.607,1057.5" fill="#e73530"/>
      <path id="Path_158" data-name="Path 158" d="M538.967,1032.733a4.586,4.586,0,0,0-4.668,4.5,4.665,4.665,0,1,0,4.668-4.5Z" fill="url(#radial-gradient)"/>
      <path id="Path_159" data-name="Path 159" d="M512.461,1032.9h-2.51v8.755h2.5a4.569,4.569,0,0,0,3.124-1.01,4.405,4.405,0,0,0,1.588-3.363C517.16,1034.694,515.229,1032.9,512.461,1032.9Zm2,6.575a3.236,3.236,0,0,1-2.339.7h-.459v-5.791h.459a3.173,3.173,0,0,1,2.339.709,2.94,2.94,0,0,1,.942,2.178A3,3,0,0,1,514.458,1039.472Z" fill="#001722"/>
      <rect id="Rectangle_363" data-name="Rectangle 363" width="1.706" height="8.755" transform="translate(517.949 1032.897)" fill="#001722"/>
      <path id="Path_160" data-name="Path 160" d="M523.831,1036.255c-1.026-.38-1.327-.63-1.327-1.1,0-.552.537-.972,1.273-.972a1.776,1.776,0,0,1,1.38.708l.891-1.167a3.827,3.827,0,0,0-2.573-.972,2.572,2.572,0,0,0-2.73,2.506c0,1.209.551,1.825,2.153,2.405a6.477,6.477,0,0,1,1.181.5,1.045,1.045,0,0,1,.513.9,1.248,1.248,0,0,1-1.327,1.234,2.02,2.02,0,0,1-1.864-1.167l-1.1,1.064a3.405,3.405,0,0,0,3.033,1.667,2.825,2.825,0,0,0,3.018-2.876C526.35,1037.6,525.774,1036.965,523.831,1036.255Z" fill="#001722"/>
      <path id="Path_161" data-name="Path 161" d="M526.888,1037.279a4.535,4.535,0,0,0,4.623,4.57,4.712,4.712,0,0,0,2.14-.511v-2.01a2.731,2.731,0,0,1-2.062.958,2.862,2.862,0,0,1-2.941-3.02,2.911,2.911,0,0,1,2.863-3.006,2.856,2.856,0,0,1,2.14.985v-2.01a4.367,4.367,0,0,0-2.1-.536A4.6,4.6,0,0,0,526.888,1037.279Z" fill="#001722"/>
      <path id="Path_162" data-name="Path 162" d="M547.487,1038.778l-2.337-5.881h-1.864l3.717,8.978h.918l3.782-8.978h-1.851Z" fill="#001722"/>
      <path id="Path_163" data-name="Path 163" d="M552.479,1041.652h4.844v-1.482h-3.137v-2.365H557.2v-1.483h-3.017v-1.943h3.137V1032.9h-4.844Z" fill="#001722"/>
      <path id="Path_164" data-name="Path 164" d="M564.082,1035.481c0-1.64-1.127-2.584-3.1-2.584H558.45v8.755h1.708v-3.519h.224l2.362,3.519h2.1l-2.758-3.688A2.33,2.33,0,0,0,564.082,1035.481Zm-3.427,1.445h-.5v-2.652h.525c1.065,0,1.643.447,1.643,1.3C562.326,1036.452,561.748,1036.926,560.655,1036.926Z" fill="#001722"/>
      <path id="Path_165" data-name="Path 165" d="M565.286,1033.549c0-.153-.1-.237-.29-.237h-.248v.771h.182v-.3l.216.3h.229l-.256-.318A.213.213,0,0,0,565.286,1033.549Zm-.322.105h-.034v-.2h.036c.091,0,.137.033.137.1S565.055,1033.654,564.964,1033.654Z" fill="#231f20"/>
      <path id="Path_166" data-name="Path 166" d="M565.033,1033.022a.674.674,0,1,0,.665.674A.671.671,0,0,0,565.033,1033.022Zm0,1.227a.552.552,0,1,1,.53-.551A.545.545,0,0,1,565.032,1034.249Z" fill="#231f20"/>
      <path id="Path_167" data-name="Path 167" d="M525.256,1043.953l2.285,2.393v-2.268h.326v3.06l-2.284-2.388v2.257h-.327Z" fill="#231f20"/>
      <path id="Path_168" data-name="Path 168" d="M525.226,1043.953v3.085h.387v-2.212l2.284,2.388v-3.167h-.387v2.223c-.1-.106-2.284-2.394-2.284-2.394Zm.061.076,2.286,2.394v-2.316h.263v2.956l-2.282-2.39v2.3h-.267Z" fill="#231f20"/>
      <path id="Path_169" data-name="Path 169" d="M529.45,1044.078h1.517v.3h-1.192v.871h1.157v.3h-1.157v1.15h1.192v.3H529.45Z" fill="#231f20"/>
      <path id="Path_170" data-name="Path 170" d="M530.967,1044.047h-1.549v2.991H531v-.365h-1.192v-1.09h1.157v-.361h-1.157v-.809H531v-.366Zm-.03.06v.242h-1.193v.932H530.9v.242h-1.158v1.211h1.193v.242H529.48v-2.869Z" fill="#231f20"/>
      <path id="Path_171" data-name="Path 171" d="M533.272,1047.007h-.327v-2.627h-.706v-.3h1.748v.3h-.715Z" fill="#231f20"/>
      <path id="Path_172" data-name="Path 172" d="M533.987,1044.047h-1.781v.366h.709v2.625h.387v-2.625h.715v-.366Zm-.031.06v.242h-.715v2.627h-.265v-2.627h-.707v-.242Z" fill="#231f20"/>
      <path id="Path_173" data-name="Path 173" d="M536.17,1046.273l.948-2.348.947,2.348.77-2.195h.355l-1.125,3.08-.947-2.36-.948,2.36-1.122-3.08h.353Z" fill="#231f20"/>
      <path id="Path_174" data-name="Path 174" d="M537.09,1043.914l-.919,2.272c-.049-.142-.749-2.139-.749-2.139H535l1.166,3.2s.9-2.229.948-2.364c.053.135.948,2.364.948,2.364l1.166-3.2h-.419s-.7,2-.749,2.139c-.058-.14-.946-2.342-.946-2.342Zm-.892,2.37.92-2.276.949,2.351.789-2.252h.289c-.028.078-1.029,2.824-1.081,2.966l-.946-2.355-.948,2.355c-.05-.142-1.05-2.888-1.079-2.966h.288l.789,2.252Z" fill="#231f20"/>
      <path id="Path_175" data-name="Path 175" d="M543.408,1045.545a1.527,1.527,0,1,1-1.527-1.518A1.52,1.52,0,0,1,543.408,1045.545Zm-2.728,0a1.2,1.2,0,1,0,1.2-1.213A1.211,1.211,0,0,0,540.68,1045.542Z" fill="#231f20"/>
      <path id="Path_176" data-name="Path 176" d="M540.324,1045.545a1.558,1.558,0,1,0,1.557-1.548A1.552,1.552,0,0,0,540.324,1045.545Zm.06,0a1.5,1.5,0,1,1,1.5,1.482A1.493,1.493,0,0,1,540.384,1045.545Z" fill="#231f20"/>
      <path id="Path_177" data-name="Path 177" d="M540.649,1045.542a1.231,1.231,0,1,0,1.232-1.242A1.238,1.238,0,0,0,540.649,1045.542Zm.062,0a1.17,1.17,0,1,1,1.17,1.182A1.177,1.177,0,0,1,540.711,1045.542Z" fill="#231f20"/>
      <path id="Path_178" data-name="Path 178" d="M545.149,1047.007h-.326v-2.929h.423c.555,0,1.071.148,1.071.808a.765.765,0,0,1-.733.808l.932,1.313h-.4l-.884-1.287h-.082Zm0-1.574h.1c.368,0,.742-.069.742-.524,0-.481-.354-.529-.746-.529h-.1Z" fill="#231f20"/>
      <path id="Path_179" data-name="Path 179" d="M544.823,1044.047h-.031v2.991h.388v-1.287h.05c0,.022.861,1.273.861,1.273l.425.014h.06l-.941-1.326a.791.791,0,0,0,.713-.826c0-.566-.36-.839-1.1-.839Zm.423.06c.71,0,1.041.248,1.041.779a.738.738,0,0,1-.706.778l-.054.005.931,1.307h-.342c0-.022-.861-1.273-.861-1.273l-.106-.013h-.031v1.286h-.265v-2.869Z" fill="#231f20"/>
      <path id="Path_180" data-name="Path 180" d="M545.149,1044.349h-.031v1.114h.132c.36,0,.772-.063.772-.554,0-.517-.4-.56-.776-.56Zm.1.064c.376,0,.715.036.715.5,0,.434-.359.492-.711.492h-.07v-.988Z" fill="#231f20"/>
      <path id="Path_181" data-name="Path 181" d="M549.473,1044.078h.439l-1.375,1.365,1.421,1.564h-.45l-1.2-1.344-.082.079v1.265H547.9v-2.929h.326v1.254Z" fill="#231f20"/>
      <path id="Path_182" data-name="Path 182" d="M549.912,1044.047h-.451s-1.11,1.115-1.2,1.212v-1.212h-.387v2.991h.387v-1.29a.365.365,0,0,0,.048-.041c.041.044,1.18,1.32,1.18,1.32l.473.011h.071s-1.411-1.553-1.452-1.595l1.408-1.4Zm-.075.06c-.1.1-1.343,1.334-1.343,1.334l1.4,1.535h-.382c0-.015-1.179-1.334-1.179-1.334l-.021-.025-.1.105s-.009,1.2-.009,1.254h-.265v-2.869h.265v1.3l1.29-1.3Z" fill="#231f20"/>
    </g>
    <g id="Group_479" data-name="Group 479" transform="translate(2772.531 7156.308)">
      <rect id="Rectangle_364" data-name="Rectangle 364" width="70" height="40" rx="4.32" transform="translate(582.469 1022.692)" fill="#fff"/>
      <g id="Group_429" data-name="Group 429">
        <path id="Path_183" data-name="Path 183" d="M623.55,1034.645s1.455,1.011,0,1.2a18.555,18.555,0,0,0-9.481,4.425s-6.068,5.309-8.344,11.124c0,0-.757,0-.5-1.137s1.769-6.131,8.532-12.263c0,0,6.511-5.94,9.8-3.349m-17.255.758c.063,1.391,1.264,6.7,1.264,6.7.442,1.074.822,0,.822,0a6.41,6.41,0,0,0-1.517-6.889c-.759-.443-.569.189-.569.189" fill="#f64d25"/>
        <g id="Group_428" data-name="Group 428">
          <path id="Path_184" data-name="Path 184" d="M596.612,1043.133a3.855,3.855,0,0,1-.81-.074l.549-2.933a5.413,5.413,0,0,1,.855-.059c.811,0,1.476.31,1.476,1.253a1.892,1.892,0,0,1-2.07,1.813m.436-4.121a9.328,9.328,0,0,0-2.112.209l-1.52,8.122h1.7l.555-2.973c.181.012.422.048.712.048a4.211,4.211,0,0,0,2.606-.774,2.893,2.893,0,0,0,1.1-2.322,1.994,1.994,0,0,0-.881-1.757,3.748,3.748,0,0,0-2.161-.553" fill="#363636"/>
          <path id="Path_185" data-name="Path 185" d="M601.917,1046.343c-.559,0-.824-.459-.824-1.129,0-1.27.949-2.861,2.247-2.861a2.8,2.8,0,0,1,.53.056l-.279,1.577c-.308,1.674-1.074,2.357-1.674,2.357m1.937-5.177a4.177,4.177,0,0,0-4.421,4.306,1.916,1.916,0,0,0,1.869,2.148,2.376,2.376,0,0,0,2.1-1.364h.025c-.025.442-.063.872-.076,1.225h1.667a15.121,15.121,0,0,1,.253-2.779l.619-3.233a7.086,7.086,0,0,0-2.033-.3" fill="#363636"/>
          <path id="Path_186" data-name="Path 186" d="M615.248,1046.393a1.149,1.149,0,0,1-1.15-1.307c0-1.044.62-2.694,1.843-2.694a1.125,1.125,0,0,1,1.135,1.279c0,1.141-.663,2.722-1.813,2.722h-.015m.885-5.227a3.712,3.712,0,0,0-3.689,3.9,2.448,2.448,0,0,0,2.627,2.552h.013a3.681,3.681,0,0,0,3.675-3.9,2.458,2.458,0,0,0-2.626-2.551" fill="#363636"/>
          <path id="Path_187" data-name="Path 187" d="M623.6,1041.166a2.625,2.625,0,0,0-2.16,1.161h-.025l.113-1.023h-1.6c-.076.556-.177,1.226-.329,2.009l-.783,4.168h1.819l.506-2.741c.265-1.364.947-2.11,1.54-2.11.468,0,.62.3.62.746a4.009,4.009,0,0,1-.064.682l-.644,3.423h1.819l.682-3.588a7.445,7.445,0,0,0,.1-1.035,1.5,1.5,0,0,0-1.591-1.692" fill="#363636"/>
          <path id="Path_188" data-name="Path 188" d="M627.365,1043.9h-.149a1.872,1.872,0,0,1,1.76-1.547c.505,0,.811.261.811.628V1043c0,.669-.807.9-2.422.9m1.756-2.737a3.709,3.709,0,0,0-3.6,3.839,2.4,2.4,0,0,0,2.678,2.615,5.337,5.337,0,0,0,2.3-.492l-.126-1.314a3.894,3.894,0,0,1-1.73.391,1.424,1.424,0,0,1-1.187-.48,1.212,1.212,0,0,1-.19-.631c.122,0,.241.005.358.005,2.264,0,3.645-.587,3.645-2.077a1.9,1.9,0,0,0-2.146-1.856" fill="#363636"/>
          <path id="Path_189" data-name="Path 189" d="M633.151,1043.9H633a1.872,1.872,0,0,1,1.76-1.547c.505,0,.811.261.811.628V1043c0,.669-.808.9-2.422.9m1.756-2.737a3.71,3.71,0,0,0-3.6,3.839,2.4,2.4,0,0,0,2.677,2.615,5.339,5.339,0,0,0,2.3-.492l-.126-1.314a3.9,3.9,0,0,1-1.731.391,1.424,1.424,0,0,1-1.187-.48,1.211,1.211,0,0,1-.19-.631c.122,0,.242.005.359.005,2.264,0,3.646-.587,3.646-2.077a1.906,1.906,0,0,0-2.147-1.856" fill="#363636"/>
          <path id="Path_190" data-name="Path 190" d="M641.179,1041.153c-.846,0-1.343.593-1.772,1.427h-.05c.05-.442.087-.859.113-1.276H637.9a15.926,15.926,0,0,1-.226,2.892l-.709,3.285h1.517l.395-2.3c.227-1.213.835-2.447,1.985-2.447a1.673,1.673,0,0,1,.277.014l.378-1.583c-.1,0-.215-.013-.342-.013" fill="#363636"/>
        </g>
      </g>
    </g>
  </g>
</svg>
